<svg id="Layer_3" data-name="Layer 3" xmlns="http://www.w3.org/2000/svg" viewBox="0 0 222.51 41.87"><defs><style>.cls-1{fill:#fff;}</style></defs><path class="cls-1" d="M18,41.29a32.83,32.83,0,0,1-6,.58,13.54,13.54,0,0,1-6.29-1.38A9.9,9.9,0,0,1,1.6,36.66,10.85,10.85,0,0,1,.16,31.05a12.45,12.45,0,0,1,.23-2.53L1.6,21.91a13.89,13.89,0,0,1,4.54-8.34,12.82,12.82,0,0,1,8.74-3.16,11.85,11.85,0,0,1,5.58,1.21L22.36.92a1,1,0,0,1,1-.92h6.67a1,1,0,0,1,.78.32.83.83,0,0,1,.14.77L24.37,38.7a1.16,1.16,0,0,1-.86,1A30.13,30.13,0,0,1,18,41.29ZM9,30.88a3.13,3.13,0,0,0,.94,2.53,4.43,4.43,0,0,0,2.91.81,9.34,9.34,0,0,0,3.79-.64l2.59-14.83a6.64,6.64,0,0,0-3.79-1q-4.26,0-5.18,5.23L9.13,29.16A8.93,8.93,0,0,0,9,30.88Z" transform="translate(-0.16)"/><path class="cls-1" d="M59.1,11.36a.48.48,0,0,1,.23.43.93.93,0,0,1-.23.57L49.33,26.22,54.67,40a1.78,1.78,0,0,1,.12.46.62.62,0,0,1-.26.49,1.06,1.06,0,0,1-.66.2H46.8a1.1,1.1,0,0,1-1.1-.86l-2.59-8.34-5.75,8.51a1.3,1.3,0,0,1-1.2.69H28.68A1.2,1.2,0,0,1,28,41a.54.54,0,0,1-.26-.46.93.93,0,0,1,.23-.58L38.51,25.59,33.63,12.31a1.27,1.27,0,0,1-.06-.41c0-.46.27-.69.8-.69h7a1,1,0,0,1,1.09.81l2.3,8.57,5.35-8.74a1.22,1.22,0,0,1,1.15-.64h7.25A1.13,1.13,0,0,1,59.1,11.36Z" transform="translate(-0.16)"/><path class="cls-1" d="M64.88,13.23a15.73,15.73,0,0,1,9.4-2.82,13,13,0,0,1,8.23,2.41q3.1,2.41,3.1,7.14a17.93,17.93,0,0,1-.28,2.81l-1,5.58a1,1,0,0,1-1,.86h-16l-.18.81c-.07.61-.11,1-.11,1.26q0,3.28,4.08,3.28a14.52,14.52,0,0,0,7.48-2.3,1,1,0,0,1,.63-.23.73.73,0,0,1,.69.52L82.28,37a4,4,0,0,1,.11.57.83.83,0,0,1-.46.81,20.73,20.73,0,0,1-12,3.51,12.92,12.92,0,0,1-8.42-2.65A8.76,8.76,0,0,1,58.24,32a19.43,19.43,0,0,1,.23-2.24L60,21.45A12.35,12.35,0,0,1,64.88,13.23Zm12.28,7.82a3.3,3.3,0,0,0-.92-2.42,3.68,3.68,0,0,0-2.7-.92,4.8,4.8,0,0,0-3.2,1.1,5.24,5.24,0,0,0-1.69,3.1l-.29,1.55h8.4L77,22A6.67,6.67,0,0,0,77.16,21.05Z" transform="translate(-0.16)"/><path class="cls-1" d="M87.48,40.8a.83.83,0,0,1-.14-.77l4.54-26.11a1.58,1.58,0,0,1,.86-1.1,24.91,24.91,0,0,1,10.64-2.41,23,23,0,0,1,4.78.52,1,1,0,0,1,.69.37.9.9,0,0,1,.11.78l-1,5.63a.9.9,0,0,1-1.15.86,19.22,19.22,0,0,0-3.34-.28A9.7,9.7,0,0,0,99.7,19L96,40.2a1,1,0,0,1-1,.92H88.26A1,1,0,0,1,87.48,40.8Z" transform="translate(-0.16)"/><path class="cls-1" d="M128.45,37.92q1.52,1.94,5,1.95c1.18,0,2.37,0,3.58-.15.23,0,.33.11.29.33l-.17,1a.44.44,0,0,1-.42.39c-1.12.11-2.32.16-3.58.16-2.83,0-4.92-.82-6.25-2.41s-1.75-3.82-1.24-6.69l4.78-27a.37.37,0,0,1,.41-.34H132q.36,0,.36.33l-1.23,6.94,10,0a.29.29,0,0,1,.22.12.26.26,0,0,1,.08.22l-.17.95a.5.5,0,0,1-.42.39l-10,0L127.56,32.4C127.14,34.78,127.43,36.62,128.45,37.92Z" transform="translate(-0.16)"/><path class="cls-1" d="M166.19,27.91l-21.27-.09-.65,3.7A6.51,6.51,0,0,0,146,37.77a9.33,9.33,0,0,0,6.65,2.35,17.88,17.88,0,0,0,10.73-3.88c.22-.11.38-.09.47.06l.52.73c.16.19.12.34-.14.45a19.3,19.3,0,0,1-11.93,4.26,12.44,12.44,0,0,1-5.6-1.26A8.17,8.17,0,0,1,143,36.94a8.26,8.26,0,0,1-.66-5.43l1.6-9.06a12,12,0,0,1,4.6-7.79,14.38,14.38,0,0,1,9-2.79c3.54,0,6.22,1,8,2.86s2.43,4.5,1.84,7.81l-.89,5A.37.37,0,0,1,166.19,27.91Zm-2.11-12q-2.28-2.38-6.76-2.41a12.21,12.21,0,0,0-7.62,2.32,10.15,10.15,0,0,0-3.83,6.59l-.67,3.81,19.73.08.67-3.8C166.1,19.74,165.59,17.55,164.08,16Z" transform="translate(-0.16)"/><path class="cls-1" d="M186.15,41a18,18,0,0,1-5.59.85,12.21,12.21,0,0,1-6-1.4,7.77,7.77,0,0,1-3.42-3.74,9.13,9.13,0,0,1-.49-5.26l1.62-9.18A11.79,11.79,0,0,1,174.6,17a12.69,12.69,0,0,1,4.74-3.7,14.92,14.92,0,0,1,6.5-1.35,14.3,14.3,0,0,1,8.93,3,.32.32,0,0,1,0,.5l-.67.78a.67.67,0,0,1-.26.14.35.35,0,0,1-.28-.08,11.77,11.77,0,0,0-3.72-2,14.94,14.94,0,0,0-4.38-.63,11.76,11.76,0,0,0-7.62,2.43,9.94,9.94,0,0,0-3.72,6.2l-1.63,9.17a7.12,7.12,0,0,0,1.53,6.25c1.46,1.67,3.7,2.51,6.74,2.52a18.52,18.52,0,0,0,9.88-3.09c.27-.15.44-.13.53.06l.46.73c.12.22.05.39-.21.5A22.85,22.85,0,0,1,186.15,41Z" transform="translate(-0.16)"/><path class="cls-1" d="M212,12.11q5.91,0,8.65,2.89t1.75,8.52l-3.12,17.62a.37.37,0,0,1-.41.33h-1.13c-.27,0-.39-.12-.35-.34l3.12-17.62q1.71-9.68-8.87-9.72a22.42,22.42,0,0,0-9.6,2.14L197.6,41.05a.37.37,0,0,1-.41.33H196c-.23,0-.33-.12-.29-.34l6.95-39.33a.38.38,0,0,1,.42-.33h1.18c.24,0,.33.12.29.34l-2.2,12.48A24.41,24.41,0,0,1,212,12.11Z" transform="translate(-0.16)"/><path class="cls-1" d="M117.57,40.26a5.37,5.37,0,0,1-4,1.61,4.35,4.35,0,0,1-3.3-1.3A4.56,4.56,0,0,1,109,37.26a5.64,5.64,0,0,1,1.52-4,5.32,5.32,0,0,1,4-1.58,4.48,4.48,0,0,1,3.34,1.29,4.57,4.57,0,0,1,1.26,3.31A5.61,5.61,0,0,1,117.57,40.26Z" transform="translate(-0.16)"/></svg>